<svg width="15" height="16" viewBox="0 0 15 16" fill="none" xmlns="http://www.w3.org/2000/svg">
<path d="M14.1108 3.40937L8.75078 0.319375C8.51078 0.179375 8.20078 0.109375 7.88078 0.109375C7.56078 0.109375 7.25078 0.179375 7.01078 0.319375L1.67078 3.40937C1.19078 3.67937 0.800781 4.35938 0.800781 4.90938V11.0894C0.800781 11.6394 1.19078 12.3094 1.67078 12.5894L7.03078 15.6794C7.27078 15.8194 7.58078 15.8894 7.90078 15.8894C8.22078 15.8894 8.53078 15.8194 8.77078 15.6794L14.1308 12.5894C14.6108 12.3094 15.0008 11.6394 15.0008 11.0894V4.90938C15.0008 4.35938 14.6108 3.67937 14.1308 3.40937H14.1108ZM7.89078 13.8794L2.80078 10.9394V5.05937L7.89078 2.11937L12.9808 5.05937V9.77938L9.89078 7.99937V7.25938C9.89078 6.99938 9.75078 6.76938 9.53078 6.63938L8.25078 5.89937C8.14078 5.83938 8.01078 5.79938 7.89078 5.79938C7.77078 5.79938 7.64078 5.82937 7.53078 5.89937L6.25078 6.63938C6.03078 6.76938 5.89078 7.00938 5.89078 7.25938V8.73938C5.89078 8.99938 6.03078 9.22937 6.25078 9.35938L7.53078 10.0994C7.64078 10.1594 7.77078 10.1994 7.89078 10.1994C8.01078 10.1994 8.14078 10.1694 8.25078 10.0994L8.89078 9.72937L11.9808 11.5094L7.89078 13.8694V13.8794Z" fill="#545B64"/>
</svg>
